<svg xmlns="http://www.w3.org/2000/svg" viewBox="0 0 48 48" id="tractor">
  <g>
    <path fill="#4f5263" d="M36,17a1,1,0,0,1-1-1V14a2,2,0,0,0-2-2,1,1,0,0,1,0-2,4,4,0,0,1,4,4v2A1,1,0,0,1,36,17Z"></path>
    <path fill="#33344a" d="M38.13,15.89A3,3,0,0,0,37,15.17,3,3,0,0,0,36,15a2.77,2.77,0,0,0-1,.18A3,3,0,0,0,33,18v6.08l3.39.45a3,3,0,0,1,1.06.35l.29.12H39V18A3,3,0,0,0,38.13,15.89ZM37,22.61a1.86,1.86,0,0,0-.34-.06L35,22.33V18a1,1,0,0,1,1-1,1,1,0,0,1,.71.31A.93.93,0,0,1,37,18Z"></path>
    <path fill="#4f5263" d="M37 18v4.61a1.86 1.86 0 0 0-.34-.06L35 22.33V18a1 1 0 0 1 1-1 1 1 0 0 1 .71.31A.93.93 0 0 1 37 18zM19 31.5a6.1 6.1 0 0 1-.13 1.3A6.5 6.5 0 0 1 6 31.5a6.46 6.46 0 0 1 3.48-5.74 6.13 6.13 0 0 1 3-.76l.31 0H13a6.37 6.37 0 0 1 3.43 1.29 6 6 0 0 1 .7.62 3.39 3.39 0 0 1 .32.35 6.77 6.77 0 0 1 .79 1.16h0a7.06 7.06 0 0 1 .39.89A6.16 6.16 0 0 1 19 31.5zM42 34.5a3.5 3.5 0 0 1-7 0 3.6 3.6 0 0 1 .2-1.17 3.49 3.49 0 0 1 4.46-2.13h0A3.49 3.49 0 0 1 42 34.5z"></path>
    <path fill="#e54c38" d="M30 26a1 1 0 0 1-1 1H26a1 1 0 0 1 0-2h3A1 1 0 0 1 30 26zM30 29a1 1 0 0 1-1 1H26a1 1 0 0 1 0-2h3A1 1 0 0 1 30 29z"></path>
    <path fill="#33344a" d="M12.5 35a3.5 3.5 0 0 1-1.63-6.59A3.23 3.23 0 0 1 12.79 28 3.48 3.48 0 0 1 16 31.5a3.2 3.2 0 0 1-.07.7A3.51 3.51 0 0 1 12.5 35zm0-5a1.47 1.47 0 0 0-.69.17A1.5 1.5 0 1 0 14 31.8a1.45 1.45 0 0 0 0-.3 1.51 1.51 0 0 0-.08-.48 1.48 1.48 0 0 0-1.32-1zM38.5 36A1.5 1.5 0 0 1 37 34.5a1.5 1.5 0 0 1 2-1.41A1.5 1.5 0 0 1 38.5 36z"></path>
    <path fill="#33344a" d="M38.5,34a.5.5,0,0,0-.5.5.51.51,0,0,0,.34.47.38.38,0,0,0,.16,0,.51.51,0,0,0,.47-.34.38.38,0,0,0,0-.16A.5.5,0,0,0,38.5,34Z"></path>
    <path fill="#e54c38" d="M22,15.92A1,1,0,0,0,21,15H13a1,1,0,0,0-1,1v7a6,6,0,0,1,1.12,0,6.41,6.41,0,0,1,.88.11V17h6.07l.85,11h-.69c.1.22.19.44.27.67A7.46,7.46,0,0,1,20.86,30a.08.08,0,0,1,0,0v0H22a1,1,0,0,0,.73-.32,1,1,0,0,0,.27-.76ZM39,23.5a4,4,0,0,0-.59-.38,5.22,5.22,0,0,0-1.75-.57L35,22.33l-2-.27-7.08-.95L25.11,13,25,11.9a1,1,0,0,0-1-.9H9a1,1,0,0,0-1,1V24.88a1,1,0,0,0,.49.86,1,1,0,0,0,1,0,6.13,6.13,0,0,1,3-.76l.31,0H13a1,1,0,0,0,.67-.25A1,1,0,0,0,14,24V17h6.07l.85,11H19.56a1,1,0,0,0-.82.43,1,1,0,0,0-.13.87v.05a6.38,6.38,0,0,1,.25,3.45,1,1,0,0,0,.2.83,1,1,0,0,0,.78.37H34.26a1,1,0,0,0,.94-.67,3.49,3.49,0,0,1,4.46-2.13h0a1,1,0,0,0,.89-.13,1,1,0,0,0,.43-.82V27.5A5,5,0,0,0,39,23.5ZM38.45,29l-.39,0a4.77,4.77,0,0,0-.66.1,5.66,5.66,0,0,0-2.66,1.37l-.2.21a1.06,1.06,0,0,0-.15.15,2.17,2.17,0,0,0-.24.29,5.47,5.47,0,0,0-.55.86H21c0-.17,0-.33,0-.5A7.85,7.85,0,0,0,20.87,30v0H22a1,1,0,0,0,.73-.32,1,1,0,0,0,.27-.76l-1-13A1,1,0,0,0,21,15H13a1,1,0,0,0-1,1v7a8.41,8.41,0,0,0-2,.37V13H23.1l.9,9.1a1,1,0,0,0,.87.89L33,24.08l3.39.45a3,3,0,0,1,2.61,3V29A5.06,5.06,0,0,0,38.45,29Z"></path>
    <path fill="#ff694f" d="M37.45,24.88a3,3,0,0,0-1.06-.35L33,24.08,24.87,23A1,1,0,0,1,24,22.1L23.1,13H10V23.37A7.14,7.14,0,0,1,12,23V16a1,1,0,0,1,1-1h8a1,1,0,0,1,1,.92l1,13a1,1,0,0,1-.27.76A1,1,0,0,1,22,30H20.87v0A7.85,7.85,0,0,1,21,31.5c0,.17,0,.33,0,.5H33.6a5.47,5.47,0,0,1,.55-.86l.24-.29a1.06,1.06,0,0,1,.15-.15,1.29,1.29,0,0,1,.2-.21,5.4,5.4,0,0,1,2.66-1.37,4.77,4.77,0,0,1,.66-.1l.39,0A5.06,5.06,0,0,1,39,29V27.5A3,3,0,0,0,37.45,24.88ZM29,30H26a1,1,0,0,1,0-2h3a1,1,0,0,1,0,2Zm0-3H26a1,1,0,0,1,0-2h3a1,1,0,0,1,0,2Z"></path>
    <path fill="#e54c38" d="M22,15.92A1,1,0,0,0,21,15H13a1,1,0,0,0-1,1v8a1,1,0,0,0,.88,1H13a6.37,6.37,0,0,1,3.43,1.29,6,6,0,0,1,.7.62,3.39,3.39,0,0,1,.32.35,6.24,6.24,0,0,1,.79,1.16h0a5.81,5.81,0,0,1,.38.84v0a1,1,0,0,0,.94.67H22a1,1,0,0,0,.73-.32,1,1,0,0,0,.27-.76ZM20.24,28c-.07-.16-.15-.32-.23-.47a4.83,4.83,0,0,0-.26-.45,3.28,3.28,0,0,0-.2-.31,8.06,8.06,0,0,0-2-2.07c-.13-.1-.26-.2-.4-.29l-.31-.19c-.14-.09-.29-.17-.44-.25s-.24-.12-.36-.18l-.32-.14-.26-.1a7.27,7.27,0,0,0-1.31-.37l-.19,0V17h6.07l.85,11Z"></path>
    <path fill="#33344a" d="M20.87 30a.08.08 0 0 0 0 0 7.46 7.46 0 0 0-.36-1.33c-.08-.23-.17-.45-.27-.67s-.14-.32-.22-.47a4.83 4.83 0 0 0-.26-.45 3.28 3.28 0 0 0-.2-.31 8.06 8.06 0 0 0-2-2.07c-.13-.1-.26-.2-.4-.29l-.31-.19c-.14-.09-.29-.17-.44-.25s-.24-.12-.36-.18l-.32-.14-.26-.1a7.27 7.27 0 0 0-1.31-.37l-.19 0a6.41 6.41 0 0 0-.88-.11A6 6 0 0 0 12 23a7.14 7.14 0 0 0-2 .37A8.21 8.21 0 0 0 8.54 24c-.19.1-.37.2-.54.31A8.49 8.49 0 1 0 20.62 34c.08-.26.15-.53.21-.8A9.37 9.37 0 0 0 21 32c0-.17 0-.33 0-.5A7.85 7.85 0 0 0 20.87 30zm-2 2.76A6.5 6.5 0 0 1 6 31.5a6.46 6.46 0 0 1 3.48-5.74 6.13 6.13 0 0 1 3-.76l.31 0H13a6.37 6.37 0 0 1 3.43 1.29 6 6 0 0 1 .7.62 3.39 3.39 0 0 1 .32.35 6.77 6.77 0 0 1 .79 1.16h0a7.06 7.06 0 0 1 .39.89 6.38 6.38 0 0 1 .25 3.45zM41 29.6a4.84 4.84 0 0 0-.66-.28A6.05 6.05 0 0 0 39 29a5.06 5.06 0 0 0-.55 0l-.39 0a4.77 4.77 0 0 0-.66.1 5.4 5.4 0 0 0-2.66 1.37l-.2.21a1.06 1.06 0 0 0-.15.15 2.17 2.17 0 0 0-.24.29 5.47 5.47 0 0 0-.55.86 4.84 4.84 0 0 0-.28.66A6.05 6.05 0 0 0 33 34c0 .17 0 .33 0 .5a5.5 5.5 0 1 0 8-4.9zM38.5 38A3.5 3.5 0 0 1 35 34.5a3.6 3.6 0 0 1 .2-1.17 3.49 3.49 0 0 1 4.46-2.13h0A3.5 3.5 0 0 1 38.5 38zM25 8H8.5A2.5 2.5 0 0 0 8 13a2.73 2.73 0 0 0 .5.05H25.11A2.5 2.5 0 0 0 25 8zm0 3H8.5a.5.5 0 0 1 0-1H25a.5.5 0 0 1 0 1z"></path>
    <path fill="#4f5263" d="M25.5,10.5a.5.5,0,0,1-.5.5H8.5a.5.5,0,0,1,0-1H25A.5.5,0,0,1,25.5,10.5Z"></path>
  </g>
</svg>
