<svg width="440" height="179" viewBox="0 0 440 179" fill="none" xmlns="http://www.w3.org/2000/svg">
<g clip-path="url(#clip0_133_2585)">
<mask id="mask0_133_2585" style="mask-type:luminance" maskUnits="userSpaceOnUse" x="-2" y="-1" width="446" height="297">
<path d="M444 -0.318359H-1.72308V296H444V-0.318359Z" fill="white"/>
</mask>
<g mask="url(#mask0_133_2585)">
<path d="M-4 178.536C-4 178.536 314.907 179.01 444 79.5879H-4V178.536Z" fill="#3BB69A"/>
<path d="M444 -2H-4V79.5839H444V-2Z" fill="#E2F7F2"/>
<path d="M379.831 26.3797H367.235C367.384 25.7685 367.473 25.1314 367.473 24.4721C367.473 20.0014 363.84 16.3789 359.357 16.3789H294.222C289.743 16.3789 286.106 20.0014 286.106 24.4721C286.106 28.9428 289.739 32.5653 294.222 32.5653H306.818C306.669 33.1765 306.58 33.8135 306.58 34.4729C306.58 38.9399 310.213 42.566 314.696 42.566H379.831C384.314 42.566 387.947 38.9436 387.947 34.4729C387.947 30.0021 384.314 26.3797 379.831 26.3797Z" fill="white"/>
<path d="M142.297 36.0398H129.702C129.851 35.4287 129.94 34.7916 129.94 34.1323C129.94 29.6616 126.307 26.0391 121.824 26.0391H56.6889C52.2094 26.0391 48.5731 29.6616 48.5731 34.1323C48.5731 38.603 52.2057 42.2255 56.6889 42.2255H69.2843C69.1358 42.8366 69.0466 43.4737 69.0466 44.133C69.0466 48.6 72.6792 52.2262 77.1625 52.2262H142.297C146.781 52.2262 150.413 48.6037 150.413 44.133C150.413 39.6623 146.781 36.0398 142.297 36.0398Z" fill="white"/>
<path d="M235.73 63.3164L235.26 62.7383L230.469 66.6151L230.939 67.1932L235.73 63.3164Z" fill="#391E27"/>
<path d="M236.421 68.1542L233.304 64.3232L232.436 65.0258L235.553 68.8567L236.421 68.1542Z" fill="#391E27"/>
<path d="M233.953 65.9869C234.525 65.5239 234.61 64.6905 234.146 64.1201L232.081 65.7906C232.545 66.361 233.381 66.4462 233.953 65.9832V65.9869Z" fill="#391E27"/>
<path d="M223.408 66.583L228.671 80.0322H208.632L203.369 66.583H223.408Z" fill="#886525"/>
<path d="M250.85 73.6505C250.259 73.6505 249.78 73.1727 249.78 72.5838V58.9679C249.78 56.4863 250.716 54.1268 252.421 52.3193L252.826 51.8896C253.23 51.46 254.791 52.9231 254.386 53.3527L253.981 53.7824C252.651 55.1936 251.919 57.0345 251.919 58.9679V72.5838C251.919 73.1727 251.44 73.6505 250.85 73.6505Z" fill="#391E27"/>
<path d="M246.894 80.0322H200.331V86.6549H246.894V80.0322Z" fill="#391E27"/>
<path d="M235.606 66.583H260.808C261.573 66.583 262.193 67.2016 262.193 67.9646V85.277C262.193 86.04 261.573 86.6586 260.808 86.6586H235.606V66.583Z" fill="#F7A422"/>
<path d="M229.009 86.6586H226.209C226.209 78.7283 219.738 72.276 211.786 72.276C209.048 72.276 206.407 73.0353 204.112 74.4799C203.896 74.6169 203.61 74.5614 203.469 74.3502L202.433 72.8168C202.284 72.5982 202.344 72.2945 202.567 72.1501C205.323 70.4018 208.502 69.4795 211.789 69.4795C221.283 69.4795 229.009 77.1838 229.009 86.6511V86.6586Z" fill="#F7A422"/>
<path d="M254.961 63.3389H253.84V66.5836H254.961V63.3389Z" fill="#391E27"/>
<path d="M254.809 63.7791H253.996C253.416 63.7791 252.945 63.3087 252.945 62.7308C252.945 62.153 253.416 61.6826 253.996 61.6826H254.809C255.389 61.6826 255.86 62.153 255.86 62.7308C255.86 63.3087 255.389 63.7791 254.809 63.7791Z" fill="#391E27"/>
<path d="M226.29 85.1701C226.197 84.2737 226.023 83.407 225.778 82.5662C226.227 82.381 226.443 81.8661 226.257 81.4142L225.8 80.2993C225.614 79.8475 225.102 79.6326 224.649 79.8104C224.203 78.9807 223.683 78.1992 223.092 77.4769C223.434 77.1324 223.434 76.5731 223.092 76.2287L222.238 75.3767C221.892 75.0323 221.335 75.0323 220.986 75.3767C220.299 74.8174 219.56 74.3211 218.78 73.8952C218.966 73.447 218.754 72.9321 218.304 72.7432L217.194 72.2765C216.744 72.0876 216.228 72.295 216.035 72.7432C215.147 72.4728 214.226 72.2839 213.279 72.1913C213.275 71.7061 212.878 71.3135 212.391 71.3135H211.184C210.697 71.3135 210.3 71.7061 210.296 72.1913C209.397 72.2839 208.528 72.458 207.685 72.7025C207.499 72.2543 206.983 72.0395 206.53 72.2247L205.412 72.6802C204.959 72.8654 204.743 73.3766 204.922 73.8285C204.09 74.273 203.306 74.7915 202.581 75.3805C202.236 75.0397 201.675 75.0397 201.33 75.3805L200.475 76.2324C200.13 76.5768 200.13 77.1324 200.475 77.4806C199.915 78.1658 199.417 78.9029 198.99 79.6808C198.54 79.4956 198.024 79.7067 197.835 80.1549L197.367 81.2624C197.177 81.7105 197.385 82.2254 197.835 82.418C197.563 83.3033 197.378 84.2219 197.281 85.1664C196.795 85.1701 196.401 85.5664 196.401 86.0516V87.2554C196.401 87.7406 196.795 88.137 197.281 88.1407C197.374 89.037 197.549 89.9038 197.794 90.7446C197.344 90.9298 197.129 91.4446 197.315 91.8965L197.771 93.0114C197.957 93.4633 198.47 93.6781 198.923 93.5003C199.369 94.33 199.889 95.1116 200.479 95.8338C200.137 96.1783 200.137 96.7376 200.479 97.0821L201.333 97.934C201.679 98.2785 202.236 98.2785 202.585 97.934C203.272 98.4933 204.012 98.9896 204.792 99.4156C204.606 99.8638 204.818 100.379 205.267 100.568L206.378 101.034C206.827 101.223 207.343 101.012 207.536 100.568C208.424 100.838 209.345 101.023 210.293 101.119C210.296 101.605 210.694 101.997 211.18 101.997H212.387C212.874 101.997 213.271 101.605 213.275 101.119C214.174 101.027 215.043 100.853 215.886 100.608C216.072 101.056 216.588 101.271 217.041 101.086L218.16 100.63C218.613 100.445 218.828 99.9341 218.65 99.4823C219.482 99.0378 220.266 98.5192 220.99 97.9303C221.335 98.271 221.896 98.271 222.242 97.9303L223.096 97.0784C223.441 96.7339 223.441 96.1783 223.096 95.8301C223.657 95.1449 224.155 94.4078 224.582 93.63C225.031 93.8152 225.547 93.604 225.737 93.1558L226.205 92.0484C226.394 91.6002 226.186 91.0853 225.737 90.8927C226.008 90.0075 226.194 89.0889 226.29 88.1444C226.777 88.1407 227.171 87.7443 227.171 87.2591V86.0553C227.171 85.5701 226.777 85.1738 226.29 85.1701Z" fill="#391E27"/>
<path d="M219.716 86.659C219.716 91.026 216.165 94.567 211.786 94.567C207.406 94.567 203.856 91.026 203.856 86.659C203.856 82.292 207.406 78.751 211.786 78.751C216.165 78.751 219.716 82.292 219.716 86.659Z" fill="#9DDFCE"/>
<path d="M216.317 86.6593C216.317 89.1558 214.285 91.1818 211.782 91.1818C209.278 91.1818 207.247 89.1558 207.247 86.6593C207.247 84.1628 209.278 82.1367 211.782 82.1367C214.285 82.1367 216.317 84.1628 216.317 86.6593Z" fill="#E2F7F2"/>
<path d="M260.667 91.1776C260.607 90.6035 260.496 90.0442 260.336 89.5034C260.626 89.3849 260.763 89.0515 260.644 88.7626L260.351 88.0477C260.232 87.7588 259.902 87.6181 259.612 87.7329C259.326 87.1995 258.991 86.6958 258.609 86.2328C258.828 86.0106 258.828 85.6513 258.609 85.429L258.059 84.8808C257.836 84.6586 257.476 84.6586 257.253 84.8808C256.811 84.5216 256.336 84.203 255.834 83.9289C255.953 83.64 255.816 83.3104 255.526 83.1881L254.809 82.8881C254.519 82.7659 254.189 82.9029 254.063 83.1881C253.494 83.014 252.9 82.8955 252.291 82.8325C252.291 82.5214 252.035 82.2695 251.719 82.2695H250.942C250.63 82.2695 250.374 82.5214 250.37 82.8325C249.795 82.8918 249.234 83.0029 248.692 83.1622C248.573 82.8733 248.238 82.7362 247.949 82.8548L247.232 83.1474C246.942 83.2659 246.801 83.5956 246.916 83.8845C246.381 84.1697 245.876 84.503 245.412 84.8845C245.189 84.666 244.829 84.666 244.606 84.8845L244.056 85.4327C243.833 85.655 243.833 86.0143 244.056 86.2365C243.696 86.6773 243.376 87.1514 243.101 87.6514C242.812 87.5329 242.481 87.6699 242.359 87.9588L242.058 88.6737C241.935 88.9626 242.073 89.2923 242.359 89.4182C242.184 89.9849 242.065 90.5776 242.002 91.185C241.69 91.185 241.437 91.4406 241.437 91.7554V92.5296C241.437 92.8407 241.69 93.0963 242.002 93.1C242.061 93.6741 242.173 94.2334 242.333 94.7742C242.043 94.8927 241.905 95.2261 242.024 95.515L242.318 96.2298C242.437 96.5187 242.767 96.6595 243.057 96.5447C243.343 97.078 243.677 97.5818 244.06 98.0448C243.841 98.267 243.841 98.6263 244.06 98.8485L244.609 99.3967C244.832 99.619 245.193 99.619 245.416 99.3967C245.858 99.756 246.333 100.075 246.834 100.349C246.716 100.638 246.853 100.967 247.143 101.089L247.86 101.389C248.149 101.512 248.48 101.375 248.606 101.089C249.174 101.264 249.769 101.382 250.378 101.445C250.378 101.756 250.634 102.008 250.95 102.008H251.726C252.038 102.008 252.295 101.756 252.298 101.445C252.874 101.386 253.435 101.275 253.977 101.115C254.096 101.404 254.43 101.541 254.72 101.423L255.437 101.13C255.727 101.012 255.868 100.682 255.753 100.393C256.287 100.108 256.793 99.7745 257.257 99.393C257.48 99.6116 257.84 99.6116 258.063 99.393L258.613 98.8448C258.835 98.6226 258.835 98.2633 258.613 98.0411C258.973 97.6003 259.292 97.1262 259.567 96.6262C259.857 96.7447 260.188 96.6076 260.31 96.3187L260.611 95.6039C260.734 95.315 260.596 94.9853 260.31 94.8594C260.485 94.2889 260.604 93.7 260.667 93.0926C260.979 93.0926 261.231 92.837 261.231 92.5222V91.748C261.231 91.4369 260.979 91.1813 260.667 91.1776Z" fill="#391E27"/>
<path d="M256.316 93.2192C256.919 90.4757 255.178 87.7642 252.426 87.163C249.675 86.5618 246.956 88.2985 246.353 91.0421C245.75 93.7857 247.492 96.4971 250.243 97.0983C252.994 97.6996 255.714 95.9628 256.316 93.2192Z" fill="#9DDFCE"/>
<path d="M252.458 94.8364C253.945 94.219 254.648 92.5168 254.029 91.0344C253.41 89.552 251.703 88.8507 250.216 89.4681C248.729 90.0855 248.026 91.7877 248.645 93.2701C249.264 94.7525 250.971 95.4538 252.458 94.8364Z" fill="#E2F7F2"/>
<path d="M255.86 72.8242H235.606V73.1168H255.86V72.8242Z" fill="#391E27"/>
<path d="M262.19 72.9688H258.282V80.9768H262.19V72.9688Z" fill="#391E27"/>
<path d="M261.915 74.9428H258.278C258.197 74.9428 258.13 74.8761 258.13 74.7946C258.13 74.7132 258.197 74.6465 258.278 74.6465H261.915C261.996 74.6465 262.063 74.7132 262.063 74.7946C262.063 74.8761 261.996 74.9428 261.915 74.9428Z" fill="white"/>
<path d="M261.915 76.2621H258.278C258.197 76.2621 258.13 76.1955 258.13 76.114C258.13 76.0325 258.197 75.9658 258.278 75.9658H261.915C261.996 75.9658 262.063 76.0325 262.063 76.114C262.063 76.1955 261.996 76.2621 261.915 76.2621Z" fill="white"/>
<path d="M261.915 77.5766H258.278C258.197 77.5766 258.13 77.5099 258.13 77.4284C258.13 77.3469 258.197 77.2803 258.278 77.2803H261.915C261.996 77.2803 262.063 77.3469 262.063 77.4284C262.063 77.5099 261.996 77.5766 261.915 77.5766Z" fill="white"/>
<path d="M261.915 78.8949H258.278C258.197 78.8949 258.13 78.8283 258.13 78.7468C258.13 78.6653 258.197 78.5986 258.278 78.5986H261.915C261.996 78.5986 262.063 78.6653 262.063 78.7468C262.063 78.8283 261.996 78.8949 261.915 78.8949Z" fill="white"/>
<path d="M245.709 76.3174H237.17V82.266H245.709V76.3174Z" fill="#391E27"/>
<path d="M245.709 79.6289H237.17V82.2661H245.709V79.6289Z" fill="#886525"/>
<path d="M201.207 66.5836H223.408L222.138 63.3389H201.207C200.947 63.3389 200.735 63.55 200.735 63.8093V66.1132C200.735 66.3724 200.947 66.5836 201.207 66.5836Z" fill="#F7A422"/>
<path d="M238.065 68.4653L235.602 72.1137L233.158 69.0987C232.932 68.8172 232.972 68.406 233.255 68.1801L235.87 66.0651C236.152 65.8355 236.568 65.8799 236.794 66.1614L238.028 67.6875C238.21 67.9097 238.221 68.2245 238.061 68.4653H238.065Z" fill="#F7A422"/>
<path d="M343.701 66.0498H345.778V79.9064C345.778 80.1435 345.584 80.3398 345.343 80.3398H344.132C343.894 80.3398 343.698 80.1472 343.698 79.9064V66.0498H343.701Z" fill="#886525"/>
<path d="M345.244 72.4001L342.03 68.0078L341.007 68.7524L344.221 73.1446L345.244 72.4001Z" fill="#886525"/>
<path d="M345.406 73.071L349.226 66.4727L348.129 65.8411L344.309 72.4395L345.406 73.071Z" fill="#886525"/>
<path d="M356.178 60.7787C355.673 60.3305 355.045 60.1083 354.421 60.0972C354.343 59.8786 354.228 59.6712 354.072 59.486C354.77 58.3748 354.588 56.8932 353.57 55.9969C353.065 55.5487 352.437 55.3265 351.813 55.3153C351.706 55.0079 351.52 54.7227 351.26 54.4894C351.249 54.4782 351.234 54.4708 351.223 54.4597C351.16 54.1708 351.011 53.9004 350.773 53.693C350.48 53.4337 350.108 53.3152 349.748 53.3337C349.685 53.1448 349.577 52.967 349.414 52.8263C349.087 52.5374 348.641 52.4633 348.255 52.5929C348.196 52.1596 347.988 51.7484 347.635 51.4373C346.851 50.7483 345.655 50.8187 344.964 51.6003C344.938 51.6299 344.916 51.6595 344.893 51.6891C344.281 51.5373 343.634 51.578 343.047 51.804C343.003 51.7521 342.955 51.7003 342.899 51.6521C342.29 51.115 341.357 51.1706 340.815 51.778C340.748 51.8558 340.689 51.9373 340.641 52.0225C339.697 51.8077 338.668 52.1003 337.981 52.8744C337.35 53.5856 337.16 54.5338 337.39 55.3894C337.275 55.4635 337.168 55.5524 337.071 55.6598C337.004 55.7376 336.945 55.8191 336.896 55.9043C335.953 55.6894 334.924 55.9821 334.237 56.7562C333.238 57.8822 333.342 59.6046 334.471 60.6046C334.512 60.6417 334.556 60.675 334.601 60.7083C334.088 60.838 333.609 61.1121 333.234 61.538C332.235 62.664 332.339 64.3864 333.468 65.3865C333.973 65.8346 334.601 66.0569 335.225 66.068C335.333 66.3754 335.518 66.6606 335.778 66.894C336.113 67.1903 336.521 67.3496 336.934 67.3829C336.978 67.4311 337.023 67.4755 337.075 67.52C337.58 67.9681 338.208 68.1904 338.832 68.2015C338.939 68.5089 339.125 68.7941 339.385 69.0275C340.202 69.7498 341.454 69.672 342.178 68.8571C342.279 68.746 342.36 68.6237 342.431 68.4978C343.463 68.6941 344.57 68.3608 345.317 67.5163C345.358 67.4718 345.395 67.4237 345.432 67.3755C345.469 67.3644 345.506 67.3533 345.544 67.3385C345.963 67.7089 346.52 67.82 347.026 67.6903C347.222 67.7311 347.423 67.757 347.627 67.757C347.65 67.8237 347.676 67.8904 347.709 67.9533C348.077 68.6793 348.964 68.9682 349.692 68.5978C349.785 68.5534 349.867 68.4978 349.945 68.4348C350.744 68.9793 351.806 69.0867 352.731 68.62C353.882 68.0348 354.439 66.7495 354.146 65.5494C354.974 65.6161 355.817 65.3087 356.412 64.642C357.411 63.516 357.307 61.7936 356.178 60.7935V60.7787Z" fill="#147145"/>
<path d="M326.556 69.5127H328.632V79.9061C328.632 80.1431 328.439 80.3394 328.197 80.3394H326.987C326.749 80.3394 326.552 80.1468 326.552 79.9061V69.5127H326.556Z" fill="#886525"/>
<path d="M336.96 64.9971C337.825 63.8711 337.684 62.2562 336.603 61.3043C336.098 60.8561 335.47 60.6338 334.846 60.6227C334.738 60.3153 334.553 60.0301 334.293 59.7967C334.2 59.7152 334.1 59.6412 333.996 59.5819C334.17 58.667 333.873 57.6892 333.126 57.0299C332.621 56.5817 331.994 56.3594 331.37 56.3483C331.262 56.0409 331.076 55.7557 330.816 55.5223C329.999 54.8001 328.747 54.8778 328.023 55.6927C327.923 55.8038 327.841 55.9261 327.77 56.052C326.857 55.8779 325.883 56.1224 325.155 56.7632C325.103 56.6854 325.051 56.6113 324.988 56.5409C324.264 55.7261 323.012 55.6483 322.195 56.3705C321.931 56.6002 321.749 56.8854 321.642 57.1965C321.014 57.2076 320.39 57.4336 319.885 57.8781C318.826 58.8115 318.666 60.3783 319.469 61.4969C318.904 61.545 318.347 61.7635 317.886 62.1673C316.757 63.1636 316.649 64.886 317.652 66.0157C317.786 66.1676 317.938 66.2935 318.094 66.4083C318.072 67.1899 318.38 67.9751 319.016 68.5344C319.108 68.6159 319.205 68.6863 319.302 68.753C319.172 69.6345 319.476 70.5568 320.193 71.1902C320.698 71.6384 321.326 71.8606 321.95 71.8717C322.058 72.1791 322.243 72.4643 322.503 72.6977C323.202 73.3163 324.219 73.3459 324.951 72.8347C325.861 73.4237 327.094 73.2792 327.837 72.4421C327.867 72.4088 327.893 72.3717 327.919 72.3384C328.639 72.5162 329.405 72.468 330.099 72.2051C330.151 72.268 330.211 72.3273 330.274 72.3866C330.994 73.0199 332.094 72.9533 332.729 72.2384C332.811 72.1495 332.878 72.0532 332.937 71.9532C334.051 72.2088 335.266 71.8643 336.076 70.9494C336.859 70.0642 337.064 68.8715 336.726 67.827C337.253 66.9639 337.327 65.9157 336.974 65.0045L336.96 64.9971Z" fill="#3BB69A"/>
<path d="M187.512 51.4112C192.549 51.4112 196.631 47.34 196.631 42.3179C196.631 37.2958 192.549 33.2246 187.512 33.2246C182.476 33.2246 178.394 37.2958 178.394 42.3179C178.394 47.34 182.476 51.4112 187.512 51.4112Z" fill="white"/>
<path d="M187.512 44.7148C186.784 44.7148 186.194 45.3038 186.194 46.0298C186.194 46.7557 186.784 47.3447 187.512 47.3447C188.24 47.3447 188.831 46.7557 188.831 46.0298C188.831 45.3038 188.24 44.7148 187.512 44.7148Z" fill="#3BB69A"/>
<path d="M189.748 42.944C189.091 42.4698 188.322 42.2217 187.516 42.2217C186.71 42.2217 185.937 42.4735 185.284 42.944C184.994 43.1551 184.927 43.5588 185.139 43.8514C185.265 44.0255 185.466 44.1218 185.666 44.1218C185.8 44.1218 185.934 44.0811 186.049 43.9996C186.48 43.6885 186.989 43.5218 187.52 43.5218C188.051 43.5218 188.556 43.6885 188.991 43.9996C189.28 44.2107 189.689 44.144 189.901 43.8551C190.112 43.5662 190.046 43.1588 189.756 42.9477L189.748 42.944Z" fill="#3BB69A"/>
<path d="M191.178 40.9665C190.101 40.1887 188.835 39.7812 187.512 39.7812C186.19 39.7812 184.923 40.1924 183.846 40.9665C183.557 41.1776 183.49 41.5814 183.701 41.874C183.828 42.0481 184.028 42.1444 184.229 42.1444C184.363 42.1444 184.496 42.1036 184.611 42.0222C185.466 41.4073 186.469 41.0813 187.512 41.0813C188.556 41.0813 189.563 41.4073 190.413 42.0222C190.703 42.2333 191.112 42.1666 191.323 41.8777C191.535 41.5888 191.468 41.1814 191.178 40.9702V40.9665Z" fill="#3BB69A"/>
<path d="M192.642 38.9477C191.141 37.8661 189.37 37.292 187.516 37.292C185.663 37.292 183.891 37.8624 182.39 38.9477C182.101 39.1588 182.034 39.5625 182.245 39.8551C182.457 40.1441 182.862 40.2107 183.155 39.9996C184.433 39.0773 185.941 38.5921 187.52 38.5921C189.098 38.5921 190.606 39.0773 191.884 39.9996C191.999 40.0811 192.133 40.1218 192.267 40.1218C192.467 40.1218 192.668 40.0292 192.794 39.8514C193.006 39.5625 192.939 39.1551 192.649 38.944L192.642 38.9477Z" fill="#3BB69A"/>
</g>
</g>
<defs>
<clipPath id="clip0_133_2585">
<rect width="448" height="181" fill="white" transform="translate(-4 -2)"/>
</clipPath>
</defs>
</svg>
