<svg xmlns="http://www.w3.org/2000/svg" enable-background="new 0 0 32 32" viewBox="0 0 32 32" id="diamond">
  <g id="Diamond">
    <path fill="#f98a17" d="M16 5.089c.497 0 .9-.403.9-.9V2c0-.497-.403-.9-.9-.9S15.1 1.503 15.1 2v2.188C15.1 4.686 15.503 5.089 16 5.089zM10.122 6.685c.178.198.423.299.669.299.214 0 .43-.076.602-.231.37-.332.399-.901.067-1.271l-1.392-1.547C9.734 3.563 9.166 3.532 8.796 3.867c-.37.332-.399.901-.067 1.271L10.122 6.685zM21.21 6.983c.246 0 .491-.101.669-.299l1.392-1.547c.333-.369.303-.938-.067-1.271-.368-.332-.938-.303-1.271.067l-1.392 1.547c-.333.369-.303.938.067 1.271C20.78 6.907 20.995 6.983 21.21 6.983z"></path>
    <path fill="#6621ba" d="M28.345,15.137l-4.243-5.44c-0.171-0.219-0.433-0.347-0.71-0.347H8.609c-0.277,0-0.539,0.128-0.709,0.347
		l-4.244,5.44c-0.258,0.331-0.253,0.796,0.011,1.121l11.635,14.31C15.473,30.778,15.729,30.9,16,30.9s0.527-0.122,0.698-0.333
		l11.635-14.31C28.598,15.933,28.603,15.468,28.345,15.137z M9.743,16.591l3.284,8.327l-6.77-8.327H9.743z M20.322,16.591L16,27.547
		l-4.322-10.956H20.322z M12.587,14.79L16,11.5l3.413,3.29H12.587z M22.256,16.591h3.486l-6.771,8.327L22.256,16.591z M25.791,14.79
		h-3.783l-3.777-3.64h4.721L25.791,14.79z M9.048,11.15h4.72l-3.776,3.64H6.209L9.048,11.15z"></path>
  </g>
</svg>
