<svg xmlns="http://www.w3.org/2000/svg" xml:space="preserve" id="industry" x="0" y="0" version="1.1" viewBox="0 0 52 52">
  <path d="M29.68 3.593c-.07.24-1.71 5.75-6.89 7.03-.39.1-.8.15-1.23.15-.41 0-.84-.05-1.29-.13-2.42-.45-4.4-.67-5.87-.67-1.64 0-2.1.29-2.17.35-.37.29-.89.28-1.25-.02a.984.984 0 0 1-.26-1.22c.82-1.61 3.19-5.35 7.51-5.35.78 0 1.59.12 2.4.37.46.14 1 .29 1.48.35.39.04.78.06 1.16.06 1.44 0 3.41-.32 4.68-1.83.3-.37.82-.47 1.23-.25.42.22.63.71.5 1.16z" style="fill:#3c93c9"></path>
  <path d="M11.69 13.623H6.05c-.51 0-.94.39-.99.9l-3.05 27.91c-.04.28.06.57.24.78.19.21.47.33.75.33h11.74c.29 0 .56-.12.75-.33s.28-.5.25-.78l-3.05-27.91c-.06-.51-.49-.9-1-.9zM37.657 35.535a16.602 16.602 0 0 1 2.952-2.004V23.063c0-.56-.45-1-1-1H15.525l.844 7.724v-2.344c0-.55.45-1 1-1h5.58c.56 0 1 .45 1 1v5.58c0 .55-.44 1-1 1h-5.58a.972.972 0 0 1-.558-.194l.917 8.387c.048.451-.012.899-.157 1.317h14.954c.224-.768.483-1.523.82-2.25a16.589 16.589 0 0 1 4.312-5.748zm-1.808-2.512c0 .55-.45 1-1 1h-5.58c-.55 0-1-.45-1-1v-5.58c0-.55.45-1 1-1h5.58c.55 0 1 .45 1 1v5.58z"></path>
  <path d="M50 34.533v.52c0 8.07-6.56 14.63-14.63 14.63h-.13l7.1-6.88c.4-.39.41-1.02.02-1.41a.996.996 0 0 0-1.41-.03l-7.1 6.88v-.08c0-2.13.44-4.16 1.31-6.04.86-1.92 2.17-3.67 3.8-5.07 2.65-2.27 6.03-3.52 9.52-3.52H49c.55 0 1 .44 1 1z" style="fill:#3c93c9"></path>
</svg>
