<svg xmlns="http://www.w3.org/2000/svg" width="32" height="32" fill="none" id="store">
  <path fill="#ffbd4a" d="M5 13h22v16.177H5Z"></path>
  <path fill="#ff6160" fill-rule="evenodd" d="M2 14 4.621 3.515A2 2 0 0 1 6.561 2h18.877a2 2 0 0 1 1.94 1.515L30 14s0 3-3.23 3c-1.78 0-2.544-.91-3.231-1.726C22.978 14.606 22.469 14 21.5 14c-.968 0-1.524.606-2.137 1.274C18.613 16.09 17.78 17 16 17s-2.613-.91-3.363-1.726C12.024 14.606 11.468 14 10.5 14s-1.478.606-2.039 1.274C7.774 16.09 7.01 17 5.231 17 2 17 2 14 2 14Zm10 9a4 4 0 0 1 8 0v5h9a1 1 0 1 1 0 2H3a1 1 0 1 1 0-2h9z" clip-rule="evenodd"></path>
</svg>
