<svg width="1080" height="1080" viewBox="0 0 1080 1080" fill="none" xmlns="http://www.w3.org/2000/svg">
<path d="M663.4 763.4L886.4 693.8C904.4 684.8 926.4 692.5 935.4 711.8C939.3 720.8 940.6 731.1 936.7 740.2V741.5C932.8 750.5 926.4 757 918.7 760.8L614.5 933.6C601.6 941.3 586.1 942.6 572 937.5L363 864L352.7 860.1C343.7 857.5 335.9 854.9 326.9 854.9H281.8V638.4H355.3C381.1 638.4 406.9 642.3 430.1 651.3L534.5 688.7H654.4C676.3 688.7 694.4 706.7 693.1 727.4C693.1 736.4 687.9 745.4 682.8 751.9C676.4 758.3 667.3 762.2 657 762.2H534.5H528.1" fill="#F7C9A9"/>
<path d="M672.2 692.9C674.6 698.1 675.9 703.9 675.6 709.8C675.6 718.8 670.4 727.8 665.3 734.3C658.9 740.7 649.8 744.6 639.5 744.6H530.2V762.1H657C667.3 762.1 676.3 758.2 682.8 751.8C688 745.4 693.1 736.3 693.1 727.3C694 712.8 685.3 699.4 672.2 692.9Z" fill="#F0B68E"/>
<path d="M281.8 597.1V892.3C281.8 906.5 270.2 918.1 256 918.1H165.8C151.6 918.1 140 906.5 140 892.3V597.1C140 582.9 151.6 571.3 165.8 571.3H256C270.2 571.3 281.8 582.9 281.8 597.1Z" fill="#7979F7"/>
<path d="M755.6 631.3C720.8 661 664.1 667.4 598.3 667.4C492.6 667.4 407.5 651.9 407.5 546.2C407.5 463.7 460.4 330.9 533.8 278H661.4C683.3 293.5 703.9 316.7 720.7 342.5C667.8 367 631.7 419.9 631.7 481.7C633.2 555.2 686 617.1 755.6 631.3Z" fill="#00D67F"/>
<path d="M662.8 278C686.6 252.4 694.8 218.3 697.6 200.7C698.6 194.6 693.4 189.3 687.3 190.3C675.4 192.1 656 196.5 636.7 207C632.1 209.5 626.3 207.5 624.2 202.7C618.3 189.4 611.1 178.8 605.8 171.9C602.1 167.1 594.9 167.3 591.4 172.1C586.2 179.3 578.8 190.3 572.5 203.7C570.3 208.2 564.8 209.7 560.3 207.4C541 197.3 521.7 192.7 509.7 190.6C503.5 189.5 498.2 194.8 499.2 201C502 218.7 510.3 252.5 533.9 278H662.8Z" fill="#00C179"/>
<path d="M786.6 635.1C871.32 635.1 940 566.421 940 481.7C940 396.98 871.32 328.3 786.6 328.3C701.879 328.3 633.2 396.98 633.2 481.7C633.2 566.421 701.879 635.1 786.6 635.1Z" fill="#ECB021"/>
<path d="M786.6 596.4C723.3 596.4 671.9 544.9 671.9 481.6C671.9 418.3 723.4 366.9 786.6 366.9C849.8 366.9 901.3 418.4 901.3 481.6C901.3 545 849.8 596.4 786.6 596.4Z" fill="#F9B938"/>
<path d="M684.5 278C684.5 285 678.9 290.6 671.9 290.6H519.3C512.3 290.6 506.7 284.9 506.7 278C506.7 271.1 512.4 265.4 519.3 265.4H671.8C678.9 265.4 684.5 271 684.5 278Z" fill="#B75F25"/>
<path fill-rule="evenodd" clip-rule="evenodd" d="M775 432H735C732.878 432 730.843 431.157 729.343 429.657C727.843 428.157 727 426.122 727 424C727 421.878 727.843 419.843 729.343 418.343C730.843 416.843 732.878 416 735 416H831C833.122 416 835.157 416.843 836.657 418.343C838.157 419.843 839 421.878 839 424C839 426.122 838.157 428.157 836.657 429.657C835.157 431.157 833.122 432 831 432H807C810.561 436.731 813.021 442.197 814.2 448H831C833.122 448 835.157 448.843 836.657 450.343C838.157 451.843 839 453.878 839 456C839 458.122 838.157 460.157 836.657 461.657C835.157 463.157 833.122 464 831 464H814.2C812.353 473.034 807.443 481.152 800.3 486.983C793.158 492.814 784.22 495.999 775 496H770.312L820.656 546.344C822.113 547.853 822.92 549.874 822.901 551.971C822.883 554.069 822.042 556.075 820.559 557.559C819.075 559.042 817.069 559.883 814.971 559.901C812.874 559.92 810.853 559.113 809.344 557.656L745.344 493.656C744.226 492.537 743.464 491.112 743.155 489.56C742.847 488.009 743.005 486.4 743.611 484.939C744.216 483.477 745.241 482.228 746.556 481.349C747.872 480.47 749.418 480 751 480H775C779.964 480.001 784.806 478.463 788.859 475.597C792.912 472.732 795.977 468.68 797.632 464H735C732.878 464 730.843 463.157 729.343 461.657C727.843 460.157 727 458.122 727 456C727 453.878 727.843 451.843 729.343 450.343C730.843 448.843 732.878 448 735 448H797.632C795.977 443.32 792.912 439.268 788.859 436.403C784.806 433.537 779.964 431.999 775 432Z" fill="#D5930F"/>
<path fill-rule="evenodd" clip-rule="evenodd" d="M351.5 176.625C300.758 176.625 259.625 217.758 259.625 268.5C259.625 319.242 300.758 360.375 351.5 360.375C402.242 360.375 443.375 319.242 443.375 268.5C443.375 217.758 402.242 176.625 351.5 176.625ZM249.415 268.5C249.415 212.119 295.123 166.415 351.5 166.415C407.877 166.415 453.585 212.123 453.585 268.5C453.585 324.877 407.877 370.581 351.5 370.581C295.119 370.581 249.415 324.877 249.415 268.5Z" fill="#2B3151"/>
<path fill-rule="evenodd" clip-rule="evenodd" d="M390.838 229.162C392.828 231.153 392.828 234.384 390.838 236.378L319.382 307.838C318.908 308.312 318.345 308.687 317.726 308.944C317.107 309.2 316.443 309.332 315.773 309.332C315.102 309.331 314.439 309.199 313.82 308.943C313.2 308.686 312.638 308.31 312.164 307.836C311.69 307.362 311.314 306.799 311.058 306.18C310.802 305.56 310.67 304.897 310.67 304.226C310.67 303.556 310.802 302.893 311.059 302.273C311.316 301.654 311.692 301.092 312.166 300.618L383.618 229.162C385.612 227.168 388.843 227.168 390.838 229.162ZM325.978 248.081C327.331 248.081 328.629 247.543 329.586 246.586C330.543 245.629 331.081 244.331 331.081 242.978C331.081 241.624 330.543 240.326 329.586 239.369C328.629 238.413 327.331 237.875 325.978 237.875C324.624 237.875 323.326 238.413 322.369 239.369C321.413 240.326 320.875 241.624 320.875 242.978C320.875 244.331 321.413 245.629 322.369 246.586C323.326 247.543 324.624 248.081 325.978 248.081ZM325.978 258.29C330.039 258.29 333.934 256.677 336.805 253.805C339.677 250.934 341.29 247.039 341.29 242.978C341.29 238.917 339.677 235.022 336.805 232.15C333.934 229.279 330.039 227.665 325.978 227.665C321.917 227.665 318.022 229.279 315.15 232.15C312.279 235.022 310.665 238.917 310.665 242.978C310.665 247.039 312.279 250.934 315.15 253.805C318.022 256.677 321.917 258.29 325.978 258.29ZM377.022 299.121C378.375 299.121 379.673 298.583 380.63 297.626C381.587 296.669 382.125 295.372 382.125 294.018C382.125 292.665 381.587 291.367 380.63 290.41C379.673 289.453 378.375 288.915 377.022 288.915C375.669 288.915 374.371 289.453 373.414 290.41C372.457 291.367 371.919 292.665 371.919 294.018C371.919 295.372 372.457 296.669 373.414 297.626C374.371 298.583 375.669 299.121 377.022 299.121ZM377.022 309.331C381.083 309.331 384.978 307.717 387.85 304.846C390.721 301.974 392.335 298.079 392.335 294.018C392.335 289.957 390.721 286.062 387.85 283.191C384.978 280.319 381.083 278.706 377.022 278.706C372.961 278.706 369.066 280.319 366.194 283.191C363.323 286.062 361.71 289.957 361.71 294.018C361.71 298.079 363.323 301.974 366.194 304.846C369.066 307.717 372.961 309.331 377.022 309.331Z" fill="#445CDA"/>
</svg>
