<svg xmlns="http://www.w3.org/2000/svg" viewBox="0 0 64 64" id="scooter">
  <g>
    <path fill="#ee6530" d="M9.13 42a15 15 0 0 1 15-15h6v5c0 5 5 5 5 5h2c5 0 5-5 5-5V20h3v14.18a7.88 7.88 0 0 0-1.83.43c-.23.08-.45.18-.67.28a7.93 7.93 0 0 0-4.5 7.11Z"></path>
    <path fill="#47528a" d="M24.05 42a5 5 0 0 1-9.92 0zm27 0a5 5 0 1 1-9.92 0z"></path>
    <path fill="#6079bc" d="M27 42H11.13A7.94 7.94 0 0 1 27 42zm27 0H38.13a7.93 7.93 0 0 1 4.54-7.11c.22-.1.44-.2.67-.28a7.88 7.88 0 0 1 1.83-.43h.9a7.91 7.91 0 0 1 2.08.28l.28.08a8.15 8.15 0 0 1 2.69 1.45c.18.16.37.32.54.49a8 8 0 0 1 2.26 4.5v.32c0 .11.08.45.08.7z"></path>
    <path fill="#ee6530" d="M45.13 21h-6a1 1 0 0 1 0-2h6a1 1 0 0 1 0 2Z"></path>
    <path fill="#f8bd34" d="M30 25h-8a1 1 0 0 1 0-2h8a1 1 0 0 1 0 2zm15.13-5a4 4 0 0 0 4 4v-8a4 4 0 0 0-4 4z"></path>
  </g>
</svg>
